<svg viewBox="0 0 17 17" fill="none" xmlns="http://www.w3.org/2000/svg">
<path fill-rule="evenodd" clip-rule="evenodd" d="M0.327548 14.4906C-0.0436172 14.8618 -0.0436174 15.4636 0.327548 15.8347C0.698713 16.2059 1.30049 16.2059 1.67166 15.8347L7.86295 9.64343L14.3772 16.2218C14.7478 16.596 15.3521 16.5975 15.7246 16.2251C16.0945 15.8552 16.0959 15.256 15.7279 14.8843L9.20706 8.29932L15.8839 1.62248C16.2551 1.25132 16.2551 0.649539 15.8839 0.278374C15.5127 -0.0927914 14.911 -0.0927911 14.5398 0.278374L7.86953 6.94863L1.62574 0.643398C1.25513 0.269132 0.650817 0.267653 0.27837 0.640099C-0.0915059 1.00998 -0.0929727 1.60921 0.275088 1.98089L6.52543 8.29274L0.327548 14.4906Z" fill="white"/>
</svg>
